<svg width="20" height="20" viewBox="0 0 20 20" fill="none" xmlns="http://www.w3.org/2000/svg">
<path d="M15.1426 4.86135C14.4773 4.19379 13.6877 3.66297 12.8184 3.29884C11.9268 2.92423 10.9691 2.7323 10.002 2.73439H9.96875C8.02148 2.7422 6.19922 3.50392 4.83594 4.88088C3.4707 6.25783 2.72656 8.08595 2.73437 10.0332C2.74023 11.211 3.0332 12.3809 3.58398 13.4141L3.67187 13.5781V16.3281H6.42187L6.58594 16.416C7.61914 16.9668 8.78906 17.2598 9.9668 17.2656H10C11.9336 17.2656 13.75 16.5195 15.1191 15.1641C16.4941 13.8008 17.2578 11.9785 17.2695 10.0332C17.2734 9.04494 17.084 8.08791 16.7051 7.18556C16.3407 6.31638 15.8099 5.52683 15.1426 4.86135ZM6.09375 10.9375C5.84842 10.9325 5.61483 10.8315 5.4431 10.6563C5.27138 10.481 5.17519 10.2454 5.17519 10C5.17519 9.75464 5.27138 9.51904 5.4431 9.34377C5.61483 9.1685 5.84842 9.06752 6.09375 9.06252C6.33908 9.06752 6.57267 9.1685 6.74439 9.34377C6.91612 9.51904 7.01231 9.75464 7.01231 10C7.01231 10.2454 6.91612 10.481 6.74439 10.6563C6.57267 10.8315 6.33908 10.9325 6.09375 10.9375ZM10 10.9375C9.75467 10.9325 9.52108 10.8315 9.34935 10.6563C9.17763 10.481 9.08144 10.2454 9.08144 10C9.08144 9.75464 9.17763 9.51904 9.34935 9.34377C9.52108 9.1685 9.75467 9.06752 10 9.06252C10.2453 9.06752 10.4789 9.1685 10.6506 9.34377C10.8224 9.51904 10.9186 9.75464 10.9186 10C10.9186 10.2454 10.8224 10.481 10.6506 10.6563C10.4789 10.8315 10.2453 10.9325 10 10.9375ZM13.9062 10.9375C13.6609 10.9325 13.4273 10.8315 13.2556 10.6563C13.0839 10.481 12.9877 10.2454 12.9877 10C12.9877 9.75464 13.0839 9.51904 13.2556 9.34377C13.4273 9.1685 13.6609 9.06752 13.9062 9.06252C14.1516 9.06752 14.3852 9.1685 14.5569 9.34377C14.7286 9.51904 14.8248 9.75464 14.8248 10C14.8248 10.2454 14.7286 10.481 14.5569 10.6563C14.3852 10.8315 14.1516 10.9325 13.9062 10.9375Z" fill="black" fill-opacity="0.15"/>
<path d="M12.9688 10C12.9688 10.2486 13.0675 10.4871 13.2433 10.6629C13.4192 10.8387 13.6576 10.9375 13.9062 10.9375C14.1549 10.9375 14.3933 10.8387 14.5692 10.6629C14.745 10.4871 14.8438 10.2486 14.8438 10C14.8438 9.75136 14.745 9.5129 14.5692 9.33709C14.3933 9.16127 14.1549 9.0625 13.9062 9.0625C13.6576 9.0625 13.4192 9.16127 13.2433 9.33709C13.0675 9.5129 12.9688 9.75136 12.9688 10ZM5.15625 10C5.15625 10.2486 5.25502 10.4871 5.43084 10.6629C5.60665 10.8387 5.84511 10.9375 6.09375 10.9375C6.34239 10.9375 6.58085 10.8387 6.75666 10.6629C6.93248 10.4871 7.03125 10.2486 7.03125 10C7.03125 9.75136 6.93248 9.5129 6.75666 9.33709C6.58085 9.16127 6.34239 9.0625 6.09375 9.0625C5.84511 9.0625 5.60665 9.16127 5.43084 9.33709C5.25502 9.5129 5.15625 9.75136 5.15625 10Z" fill="black"/>
<path d="M18.0703 6.60938C17.6289 5.56055 16.9961 4.61914 16.1894 3.81055C15.3884 3.00663 14.4376 2.36762 13.3906 1.92969C12.3164 1.47852 11.1758 1.25 9.99999 1.25H9.96093C8.77733 1.25586 7.63085 1.49023 6.55272 1.95117C5.51475 2.3936 4.57277 3.03374 3.77929 3.83594C2.98046 4.64258 2.3535 5.58008 1.91991 6.625C1.47069 7.70703 1.24413 8.85742 1.24999 10.041C1.25662 11.3974 1.57751 12.7338 2.18749 13.9453V16.9141C2.18749 17.1523 2.28215 17.3809 2.45064 17.5494C2.61912 17.7178 2.84765 17.8125 3.08593 17.8125H6.05663C7.26814 18.4225 8.60454 18.7434 9.96093 18.75H10.0019C11.1719 18.75 12.3066 18.5234 13.375 18.0801C14.4166 17.6474 15.364 17.0158 16.1641 16.2207C16.9707 15.4219 17.6055 14.4883 18.0488 13.4473C18.5098 12.3691 18.7441 11.2227 18.75 10.0391C18.7558 8.84961 18.5254 7.69531 18.0703 6.60938ZM15.1191 15.1641C13.75 16.5195 11.9336 17.2656 9.99999 17.2656H9.96679C8.78905 17.2598 7.61913 16.9668 6.58593 16.416L6.42186 16.3281H3.67186V13.5781L3.58397 13.4141C3.03319 12.3809 2.74022 11.2109 2.73436 10.0332C2.72655 8.08594 3.47069 6.25781 4.83593 4.88086C6.19921 3.50391 8.02147 2.74219 9.96874 2.73438H10.0019C10.9785 2.73438 11.9258 2.92383 12.8183 3.29883C13.6894 3.66406 14.4707 4.18945 15.1426 4.86133C15.8125 5.53125 16.3398 6.31445 16.7051 7.18555C17.084 8.08789 17.2734 9.04492 17.2695 10.0332C17.2578 11.9785 16.4941 13.8008 15.1191 15.1641Z" fill="black"/>
<path d="M9.0625 10C9.0625 10.2486 9.16127 10.4871 9.33709 10.6629C9.5129 10.8387 9.75136 10.9375 10 10.9375C10.2486 10.9375 10.4871 10.8387 10.6629 10.6629C10.8387 10.4871 10.9375 10.2486 10.9375 10C10.9375 9.75136 10.8387 9.5129 10.6629 9.33709C10.4871 9.16127 10.2486 9.0625 10 9.0625C9.75136 9.0625 9.5129 9.16127 9.33709 9.33709C9.16127 9.5129 9.0625 9.75136 9.0625 10Z" fill="black"/>
</svg>
